<?xml version="1.0" encoding="utf-8"?>
<!-- Generator: Adobe Illustrator 19.0.0, SVG Export Plug-In . SVG Version: 6.00 Build 0)  -->
<svg version="1.0" id="Layer_1" xmlns="http://www.w3.org/2000/svg" xmlns:xlink="http://www.w3.org/1999/xlink" x="0px" y="0px"
	 viewBox="0 0 960 560" style="enable-background:new 0 0 960 560;" xml:space="preserve">
<style type="text/css">
	.st0{fill:#CFCFCF;}
</style>
<g id="XMLID_1_">
	<path id="XMLID_2_" class="st0" d="M431.6,170.1L174.1,339.9v183.3c0,9.9,10,17.9,22.3,17.9l156.5-0.3c12.3,0,22.2-8,22.2-17.9
		v-107c0-9.9,10-17.9,22.3-17.9h89.4c12.3,0,22.3,8,22.3,17.9v107c0,9.9,9.9,17.9,22.3,18c0,0,0,0,0.1,0l156.5,0.3
		c12.3,0,22.3-8,22.3-17.9V339.8L453,170.1C446.7,166,437.8,166,431.6,170.1L431.6,170.1z M838.4,285.5l-116.8-77.1V53.5
		c0-7.4-7.5-13.4-16.8-13.4h-78.2c-9.3,0-16.8,6-16.8,13.4v81.2L484.8,52.3c-24.8-16.3-60.5-16.3-85.2,0L46,285.5
		c-7.1,4.7-8.1,13.2-2.2,18.9c0,0,0,0,0,0l35.6,34.7c5.9,5.7,16.4,6.5,23.6,1.8c0,0,0,0,0,0l328.6-216.7c6.2-4,15.1-4,21.4,0
		l328.6,216.7c7.1,4.7,17.7,3.9,23.6-1.8c0,0,0,0,0,0l35.6-34.7C846.6,298.7,845.6,290.2,838.4,285.5
		C838.4,285.5,838.4,285.5,838.4,285.5L838.4,285.5z"/>
</g>
</svg>
